<svg width="88" height="122" viewBox="0 0 88 122" fill="none" xmlns="http://www.w3.org/2000/svg">
<g filter="url(#filter0_f_1123_4703)">
<ellipse cx="44" cy="104" rx="32" ry="6" fill="#D3D3D6"/>
</g>
<path d="M26.1779 11.3538C43.1443 -1.51185 67.3267 1.81455 80.1747 18.7986C92.1427 34.5858 90.0835 56.6386 76.0387 69.997C75.0179 70.965 73.9091 71.9154 72.7299 72.813C66.0243 77.8994 58.1395 80.0642 50.3427 80.6626C44.9747 81.085 6.28991 80.8386 6.28991 80.8386C3.63231 80.8386 1.27391 79.2018 0.358711 76.6674C-0.521289 74.1682 0.253111 71.3522 2.29471 69.6626L14.9843 59.2962C6.80031 43.0514 11.1123 22.7586 26.1779 11.3538Z" fill="#FF4040"/>
<path d="M45.2564 25.5745C43.8484 26.8945 43.778 29.1297 45.0804 30.5553C45.098 30.5729 46.9812 32.6321 47.6852 35.6065C47.9844 36.8561 48.9172 37.7889 50.0612 38.1409C50.642 38.3169 51.2932 38.3521 51.9444 38.1937C53.8452 37.7361 55.0068 35.8353 54.5492 33.9345C53.3876 29.1473 50.5364 26.0321 50.202 25.6977C48.8644 24.2897 46.6644 24.2369 45.2388 25.5569L45.2564 25.5745Z" fill="white"/>
<path d="M58.386 23.7617C56.978 25.0817 56.9076 27.3169 58.21 28.7425C58.2276 28.7601 60.1108 30.8193 60.8148 33.7937C61.114 35.0433 62.0468 35.9761 63.1908 36.3281C63.7716 36.5041 64.4228 36.5393 65.074 36.3809C66.9748 35.9233 68.1364 34.0225 67.6788 32.1217C66.5172 27.3345 63.666 24.2193 63.3316 23.8849C61.994 22.4769 59.794 22.4241 58.3684 23.7441L58.386 23.7617Z" fill="white"/>
<path d="M59.0547 54.8433C49.0227 55.0017 44.9219 50.0737 42.0003 44.7057C41.0675 42.9985 38.9203 42.3649 37.2131 43.2977C35.5059 44.2305 34.8723 46.3777 35.8051 48.0849C39.0963 54.1217 45.0979 62.1121 59.1603 61.8833C59.7587 61.8833 60.3043 61.7249 60.7971 61.4609C61.9059 60.8449 62.6627 59.6657 62.6275 58.3105C62.5923 56.3569 60.9907 54.8081 59.0371 54.8433H59.0547Z" fill="white"/>
<defs>
<filter id="filter0_f_1123_4703" x="0" y="86" width="88" height="36" filterUnits="userSpaceOnUse" color-interpolation-filters="sRGB">
<feFlood flood-opacity="0" result="BackgroundImageFix"/>
<feBlend mode="normal" in="SourceGraphic" in2="BackgroundImageFix" result="shape"/>
<feGaussianBlur stdDeviation="6" result="effect1_foregroundBlur_1123_4703"/>
</filter>
</defs>
</svg>
