<svg width="25" height="25" viewBox="0 0 25 25" fill="none" xmlns="http://www.w3.org/2000/svg">
<path fill-rule="evenodd" clip-rule="evenodd" d="M18.1668 6.49625C18.2085 6.56909 18.2814 6.62112 18.3752 6.62112C20.8752 6.62112 22.9168 8.66052 22.9168 11.1577V17.3384C22.9168 19.8356 20.8752 21.875 18.3752 21.875H6.62516C4.11475 21.875 2.0835 19.8356 2.0835 17.3384V11.1577C2.0835 8.66052 4.11475 6.62112 6.62516 6.62112C6.7085 6.62112 6.79183 6.57949 6.82308 6.49625L6.88558 6.37139C6.92149 6.29582 6.95834 6.2182 6.99575 6.1394C7.26223 5.57809 7.55706 4.95709 7.73975 4.59212C8.21891 3.65566 9.03141 3.13541 10.0418 3.125H14.9481C15.9585 3.13541 16.7814 3.65566 17.2606 4.59212C17.4246 4.91988 17.6746 5.44784 17.9155 5.95671C17.9652 6.06171 18.0146 6.16589 18.0627 6.26734L18.1668 6.49625ZM17.4064 10.4918C17.4064 11.0121 17.8231 11.4283 18.3439 11.4283C18.8647 11.4283 19.2918 11.0121 19.2918 10.4918C19.2918 9.97156 18.8647 9.54495 18.3439 9.54495C17.8231 9.54495 17.4064 9.97156 17.4064 10.4918ZM10.6981 12.1046C11.1877 11.6156 11.8231 11.3554 12.5002 11.3554C13.1772 11.3554 13.8127 11.6156 14.2918 12.0942C14.771 12.5728 15.0314 13.2075 15.0314 13.8839C15.021 15.2782 13.896 16.4123 12.5002 16.4123C11.8231 16.4123 11.1877 16.1522 10.7085 15.6736C10.2293 15.1949 9.96891 14.5602 9.96891 13.8839V13.8735C9.9585 13.218 10.2189 12.5832 10.6981 12.1046ZM15.3856 16.7765C14.646 17.5153 13.6252 17.9731 12.5002 17.9731C11.4064 17.9731 10.3856 17.5465 9.60433 16.7765C8.8335 15.9961 8.40641 14.9764 8.40641 13.8839C8.396 12.8017 8.82308 11.782 9.59391 11.0017C10.3752 10.2213 11.4064 9.79467 12.5002 9.79467C13.5939 9.79467 14.6252 10.2213 15.396 10.9913C16.1668 11.7716 16.5939 12.8017 16.5939 13.8839C16.5835 15.018 16.1252 16.0377 15.3856 16.7765Z" fill="#A6A6AC"/>
</svg>
