<svg width="20" height="20" viewBox="0 0 20 20" fill="none" xmlns="http://www.w3.org/2000/svg">
<path d="M10.02 0C4.21 0 0 4.74 0 10C0 11.68 0.49 13.41 1.35 14.99C1.51 15.25 1.53 15.58 1.42 15.89L0.75 18.13C0.6 18.67 1.06 19.07 1.57 18.91L3.59 18.31C4.14 18.13 4.57 18.36 5.081 18.67C6.541 19.53 8.36 19.97 10 19.97C14.96 19.97 20 16.14 20 9.97C20 4.65 15.7 0 10.02 0Z" fill="#E9E9EA"/>
<path fill-rule="evenodd" clip-rule="evenodd" d="M5.37131 11.2905C4.67131 11.2905 4.09131 10.7105 4.09131 10.0105C4.09131 9.30047 4.66131 8.73047 5.37131 8.73047C6.08131 8.73047 6.65131 9.30047 6.65131 10.0105C6.65131 10.7105 6.08131 11.2805 5.37131 11.2905ZM9.98208 11.2906C9.27208 11.2806 8.70208 10.7106 8.70208 10.0006C8.70208 9.3006 9.28208 8.7206 9.98208 8.7306C10.6921 8.7306 11.2621 9.3006 11.2621 10.0106C11.2621 10.7106 10.6921 11.2906 9.98208 11.2906ZM13.3114 10.0105C13.3114 10.7105 13.8814 11.2905 14.5914 11.2905C15.3014 11.2905 15.8714 10.7105 15.8714 10.0105C15.8714 9.30047 15.3014 8.73047 14.5914 8.73047C13.8814 8.73047 13.3114 9.30047 13.3114 10.0105Z" fill="#4F4F59"/>
</svg>
