<svg width="33" height="33" viewBox="0 0 33 33" fill="none" xmlns="http://www.w3.org/2000/svg">
<path fill-rule="evenodd" clip-rule="evenodd" d="M23.5648 13.6079C23.5648 14.357 24.1648 14.9564 24.9148 14.9564C25.6648 14.9564 26.2798 14.357 26.2798 13.6079C26.2798 12.8587 25.6648 12.2444 24.9148 12.2444C24.1648 12.2444 23.5648 12.8587 23.5648 13.6079ZM20.6548 22.6578C19.5898 23.7216 18.1198 24.3809 16.4998 24.3809C14.9248 24.3809 13.4548 23.7665 12.3298 22.6578C11.2198 21.534 10.6048 20.0656 10.6048 18.4924C10.5898 16.9341 11.2048 15.4658 12.3148 14.342C13.4398 13.2183 14.9248 12.6039 16.4998 12.6039C18.0748 12.6039 19.5598 13.2183 20.6698 14.327C21.7798 15.4508 22.3948 16.9341 22.3948 18.4924C22.3798 20.1256 21.7198 21.5939 20.6548 22.6578ZM16.4997 14.8513C15.5247 14.8513 14.6097 15.2259 13.9047 15.9301C13.2147 16.6194 12.8397 17.5333 12.8547 18.4773V18.4923C12.8547 19.4662 13.2297 20.3802 13.9197 21.0694C14.6097 21.7586 15.5247 22.1332 16.4997 22.1332C18.5097 22.1332 20.1297 20.5 20.1447 18.4923C20.1447 17.5184 19.7697 16.6044 19.0797 15.9151C18.3897 15.2259 17.4747 14.8513 16.4997 14.8513Z" fill="#50C0FF"/>
<path opacity="0.4" d="M24.66 7.85461L24.51 7.52497C24.105 6.67092 23.64 5.68202 23.355 5.11265C22.665 3.76415 21.48 3.01498 20.025 3H12.96C11.505 3.01498 10.335 3.76415 9.645 5.11265C9.345 5.71199 8.835 6.79079 8.415 7.67481L8.325 7.85461C8.28 7.97447 8.16 8.03441 8.04 8.03441C4.425 8.03441 1.5 10.9711 1.5 14.5671V23.4673C1.5 27.0633 4.425 30 8.04 30H24.96C28.56 30 31.5 27.0633 31.5 23.4673V14.5671C31.5 10.9711 28.56 8.03441 24.96 8.03441C24.825 8.03441 24.72 7.95949 24.66 7.85461Z" fill="#50C0FF"/>
</svg>
