<svg width="33" height="33" viewBox="0 0 33 33" fill="none" xmlns="http://www.w3.org/2000/svg">
<path d="M30.25 20.2158V22.1181C30.25 22.4338 30.2362 22.7523 30.2086 23.0679C29.8228 27.4117 26.8056 30.25 22.4519 30.25H10.548C8.34364 30.25 6.48367 29.5346 5.14725 28.2374C4.6237 27.7563 4.18282 27.1911 3.83838 26.5432C4.29304 25.9904 4.80281 25.3852 5.2988 24.7787C6.13923 23.7724 6.95211 22.7784 7.46188 22.1319C8.21964 21.1945 10.2174 18.727 12.9867 19.8849C13.5516 20.1193 14.0475 20.4501 14.5022 20.7396C15.6182 21.484 16.0866 21.7046 16.8719 21.2772C17.7399 20.8085 18.3048 19.8849 18.8972 18.92C19.2141 18.4085 19.531 17.9136 19.8755 17.4587C21.3772 15.5012 23.6918 14.9774 25.6207 16.1353C26.5851 16.7143 27.4118 17.4449 28.1833 18.188C28.3486 18.3534 28.514 18.5064 28.6655 18.658C28.8722 18.8648 29.5611 19.5541 30.25 20.2158Z" fill="#4CDA85"/>
<path opacity="0.4" d="M22.4657 2.75H10.5481C5.87751 2.75 2.75 6.0171 2.75 10.8819V22.1182C2.75 23.8124 3.13577 25.3164 3.83843 26.5433C4.29309 25.9905 4.80286 25.3853 5.29885 24.7774C6.13928 23.7725 6.95215 22.7785 7.46192 22.132C8.21969 21.1946 10.2174 18.7271 12.9867 19.885C13.5516 20.1194 14.0476 20.4502 14.5023 20.7397C15.6182 21.4841 16.0867 21.7047 16.872 21.276C17.74 20.8086 18.3049 19.885 18.8973 18.9187C19.2142 18.4086 19.5311 17.9137 19.8755 17.4588C21.3773 15.5013 23.6919 14.9775 25.6207 16.1355C26.5852 16.7144 27.4118 17.445 28.1834 18.1881C28.3487 18.3535 28.514 18.5065 28.6656 18.6581C28.8722 18.8635 29.5611 19.5528 30.25 20.2159V10.8819C30.25 6.0171 27.1225 2.75 22.4657 2.75Z" fill="#4CDA85"/>
<path d="M15.7497 12.0953C15.7497 14.0322 14.1363 15.645 12.2006 15.645C10.2662 15.645 8.65283 14.0322 8.65283 12.0953C8.65283 10.1599 10.2662 8.54565 12.2006 8.54565C14.1363 8.54565 15.7497 10.1599 15.7497 12.0953Z" fill="#4CDA85"/>
</svg>
