<svg width="50" height="50" viewBox="0 0 50 50" fill="none" xmlns="http://www.w3.org/2000/svg">
<path d="M14.8738 6.45099C24.5138 -0.859008 38.2538 1.03099 45.5538 10.681C52.3538 19.651 51.1838 32.181 43.2038 39.771C42.6238 40.321 41.9938 40.861 41.3238 41.371C37.5138 44.261 33.0338 45.491 28.6038 45.831C25.5538 46.071 3.57381 45.931 3.57381 45.931C2.06381 45.931 0.723813 45.001 0.203813 43.561C-0.296187 42.141 0.143813 40.541 1.30381 39.581L8.51381 33.691C3.86381 24.461 6.31381 12.931 14.8738 6.45099Z" fill="#51BF8D"/>
<path d="M25.7146 14.531C24.9146 15.281 24.8746 16.551 25.6146 17.361C25.6246 17.371 26.6946 18.541 27.0946 20.231C27.2646 20.941 27.7946 21.471 28.4446 21.671C28.7746 21.771 29.1446 21.791 29.5146 21.701C30.5946 21.441 31.2546 20.361 30.9946 19.281C30.3346 16.561 28.7146 14.791 28.5246 14.601C27.7646 13.801 26.5146 13.771 25.7046 14.521L25.7146 14.531Z" fill="white"/>
<path d="M33.1746 13.5012C32.3746 14.2512 32.3346 15.5212 33.0746 16.3312C33.0846 16.3412 34.1546 17.5112 34.5546 19.2012C34.7246 19.9112 35.2546 20.4412 35.9046 20.6412C36.2346 20.7412 36.6046 20.7612 36.9746 20.6712C38.0546 20.4112 38.7146 19.3312 38.4546 18.2512C37.7946 15.5312 36.1746 13.7612 35.9846 13.5712C35.2246 12.7712 33.9746 12.7412 33.1646 13.4912L33.1746 13.5012Z" fill="white"/>
<path d="M33.5543 31.1611C27.8543 31.2511 25.5243 28.4511 23.8643 25.4011C23.3343 24.4311 22.1143 24.0711 21.1443 24.6011C20.1743 25.1311 19.8143 26.3511 20.3443 27.3211C22.2143 30.7511 25.6243 35.2911 33.6143 35.1611C33.9543 35.1611 34.2643 35.0711 34.5443 34.9211C35.1743 34.5711 35.6043 33.9011 35.5843 33.1311C35.5643 32.0211 34.6543 31.1411 33.5443 31.1611H33.5543Z" fill="white"/>
</svg>
