<svg width="20" height="20" viewBox="0 0 20 20" fill="none" xmlns="http://www.w3.org/2000/svg">
<path d="M5 17.2958V7.9625C5 7.22625 4.44023 6.66667 3.75 6.66667H1.25C0.559766 6.66667 0 7.26375 0 7.9625V17.2583C0 17.9946 0.559766 18.5542 1.25 18.5542H3.75C4.44141 18.6292 5 18.0667 5 17.2958ZM20 8.00417C20 6.9 19.1609 6.005 18.125 6.005H12.4023C13.2918 4.42542 13.7508 2.635 13.7508 2.00417C13.75 1.02167 13.0273 0 11.8164 0C9.35039 0 10.7867 3.17292 7.58984 5.9L6.95312 6.44167C6.49219 6.8375 6.25781 7.41667 6.25391 8L6.25 14.6667C6.25 15.2958 6.52785 15.8888 7 16.2662L8.33359 17.3325C9.41406 18.2 10.7305 18.6667 12.082 18.6667H14.375C15.4109 18.6667 16.25 17.7721 16.25 16.6675C16.25 16.516 16.2312 16.3699 16.2013 16.2279C16.9531 15.9667 17.5 15.225 17.5 14.3333C17.5 13.9522 17.3946 13.5996 17.2211 13.2967C18.0898 13.125 18.75 12.3125 18.75 11.3375C18.75 10.8167 18.5589 10.3467 18.2531 9.99083C19.2266 9.92083 20 9.0625 20 8.00417Z" fill="#FF8C8C"/>
</svg>
