<svg width="75" height="50" viewBox="0 0 75 50" fill="none" xmlns="http://www.w3.org/2000/svg">
<g clip-path="url(#clip0_1371_1466)">
<path d="M15.4988 6.45099C25.1388 -0.859008 38.8788 1.03099 46.1788 10.681C52.9788 19.651 51.8088 32.181 43.8288 39.771C43.2488 40.321 42.6188 40.861 41.9488 41.371C38.1388 44.261 33.6588 45.491 29.2288 45.831C26.1788 46.071 4.19881 45.931 4.19881 45.931C2.68881 45.931 1.34881 45.001 0.828813 43.561C0.328813 42.141 0.768813 40.541 1.92881 39.581L9.13881 33.691C4.48881 24.461 6.93881 12.931 15.4988 6.45099Z" fill="#D3D3D6"/>
<path d="M26.3387 14.531C25.5387 15.281 25.4987 16.551 26.2387 17.361C26.2487 17.371 27.3187 18.541 27.7187 20.231C27.8887 20.941 28.4187 21.471 29.0687 21.671C29.3987 21.771 29.7687 21.791 30.1387 21.701C31.2187 21.441 31.8787 20.361 31.6187 19.281C30.9587 16.561 29.3387 14.791 29.1487 14.601C28.3887 13.801 27.1387 13.771 26.3287 14.521L26.3387 14.531Z" fill="white"/>
<path d="M33.7986 13.501C32.9986 14.251 32.9586 15.521 33.6986 16.331C33.7086 16.341 34.7786 17.511 35.1786 19.201C35.3486 19.911 35.8786 20.441 36.5286 20.641C36.8586 20.741 37.2286 20.761 37.5986 20.671C38.6786 20.411 39.3386 19.331 39.0786 18.251C38.4186 15.531 36.7986 13.761 36.6086 13.571C35.8486 12.771 34.5986 12.741 33.7886 13.491L33.7986 13.501Z" fill="white"/>
<path d="M34.1788 31.161C28.4788 31.251 26.1488 28.451 24.4888 25.401C23.9588 24.431 22.7388 24.071 21.7688 24.601C20.7988 25.131 20.4388 26.351 20.9688 27.321C22.8388 30.751 26.2488 35.291 34.2388 35.161C34.5788 35.161 34.8888 35.071 35.1688 34.921C35.7988 34.571 36.2288 33.901 36.2088 33.131C36.1888 32.021 35.2788 31.141 34.1688 31.161H34.1788Z" fill="white"/>
</g>
<path fill-rule="evenodd" clip-rule="evenodd" d="M61.6472 43.3319L69.9454 32.6007C70.3964 32.022 70.5568 31.3529 70.4064 30.6717C70.2761 30.0524 69.8953 29.4636 69.324 29.0169L67.931 27.9102C66.7183 26.9457 65.215 27.0473 64.3531 28.1539L63.4211 29.3631C63.3008 29.5143 63.3309 29.7377 63.4812 29.8595C63.4812 29.8595 65.8364 31.7479 65.8865 31.7885C66.0468 31.9408 66.1671 32.1438 66.1972 32.3875C66.2473 32.8647 65.9165 33.3114 65.4255 33.3723C65.195 33.4027 64.9745 33.3317 64.8141 33.1997L62.3387 31.2301C62.2184 31.1397 62.038 31.159 61.9378 31.2809L56.0549 38.8953C55.674 39.3724 55.5437 39.9917 55.674 40.5907L56.4257 43.8497C56.4658 44.0223 56.6161 44.1441 56.7965 44.1441L60.1038 44.1035C60.7051 44.0933 61.2663 43.8192 61.6472 43.3319ZM66.278 42.317H71.6709C72.1971 42.317 72.625 42.7505 72.625 43.2835C72.625 43.8175 72.1971 44.25 71.6709 44.25H66.278C65.7519 44.25 65.3239 43.8175 65.3239 43.2835C65.3239 42.7505 65.7519 42.317 66.278 42.317Z" fill="#D3D3D6"/>
<defs>
<clipPath id="clip0_1371_1466">
<rect width="50" height="50" fill="white" transform="translate(0.625)"/>
</clipPath>
</defs>
</svg>
