<svg width="16" height="16" viewBox="0 0 16 16" fill="none" xmlns="http://www.w3.org/2000/svg">
<path fill-rule="evenodd" clip-rule="evenodd" d="M14.2897 9.22768C14.5574 9.3699 14.764 9.59446 14.9093 9.81902C15.1924 10.2831 15.1694 10.852 14.894 11.3535L14.3586 12.2518C14.0755 12.7308 13.5477 13.0302 13.0046 13.0302C12.7368 13.0302 12.4385 12.9554 12.1937 12.8057C11.9948 12.6784 11.7653 12.6335 11.5205 12.6335C10.7632 12.6335 10.1283 13.2548 10.1053 13.9958C10.1053 14.8567 9.40154 15.5303 8.52182 15.5303H7.48146C6.59409 15.5303 5.89032 14.8567 5.89032 13.9958C5.87502 13.2548 5.24009 12.6335 4.48277 12.6335C4.23033 12.6335 4.00084 12.6784 3.80959 12.8057C3.5648 12.9554 3.25881 13.0302 2.99872 13.0302C2.44794 13.0302 1.92011 12.7308 1.63707 12.2518L1.10924 11.3535C0.826205 10.867 0.810906 10.2831 1.09395 9.81902C1.21634 9.59446 1.44583 9.3699 1.70592 9.22768C1.92011 9.12288 2.05781 8.95072 2.18785 8.74861C2.57034 8.10487 2.34085 7.25903 1.69062 6.87727C0.933301 6.45061 0.68851 5.49997 1.12454 4.75892L1.63707 3.87564C2.08076 3.13459 3.02932 2.87261 3.79429 3.30676C4.45982 3.66605 5.32424 3.42652 5.71437 2.79027C5.83677 2.58068 5.90562 2.35612 5.89032 2.13156C5.87502 1.83963 5.95916 1.56267 6.10451 1.33811C6.38755 0.874016 6.90008 0.574602 7.45851 0.559631H8.53712C9.1032 0.559631 9.61573 0.874016 9.89877 1.33811C10.0365 1.56267 10.1283 1.83963 10.1053 2.13156C10.09 2.35612 10.1589 2.58068 10.2813 2.79027C10.6714 3.42652 11.5358 3.66605 12.209 3.30676C12.9663 2.87261 13.9225 3.13459 14.3586 3.87564L14.8711 4.75892C15.3148 5.49997 15.07 6.45061 14.305 6.87727C13.6548 7.25903 13.4253 8.10487 13.8154 8.74861C13.9378 8.95072 14.0755 9.12288 14.2897 9.22768ZM5.83678 8.05247C5.83678 9.22767 6.8083 10.1633 8.0093 10.1633C9.21031 10.1633 10.1589 9.22767 10.1589 8.05247C10.1589 6.87727 9.21031 5.93411 8.0093 5.93411C6.8083 5.93411 5.83678 6.87727 5.83678 8.05247Z" fill="#D3D3D6"/>
</svg>
