<svg width="20" height="20" viewBox="0 0 20 20" fill="none" xmlns="http://www.w3.org/2000/svg">
<path d="M19.4354 0.581982C18.9352 0.068598 18.1949 -0.122663 17.5046 0.0786644L1.408 4.75952C0.679698 4.96185 0.163487 5.54268 0.0244302 6.28055C-0.117628 7.0315 0.378575 7.98478 1.02684 8.38341L6.0599 11.4768C6.57611 11.7939 7.24238 11.7144 7.66955 11.2835L13.4329 5.4843C13.723 5.18231 14.2032 5.18231 14.4933 5.4843C14.7835 5.77622 14.7835 6.24934 14.4933 6.55133L8.71998 12.3516C8.29181 12.7814 8.21178 13.4508 8.52691 13.9702L11.6022 19.0537C11.9623 19.6577 12.5826 20 13.2628 20C13.3429 20 13.4329 20 13.5129 19.9899C14.2933 19.8893 14.9135 19.3557 15.1436 18.6008L19.9156 2.52479C20.1256 1.84028 19.9356 1.09537 19.4354 0.581982Z" fill="#FF4040"/>
</svg>
