<svg width="14" height="14" viewBox="0 0 14 14" fill="none" xmlns="http://www.w3.org/2000/svg">
<g opacity="0.5">
<path fill-rule="evenodd" clip-rule="evenodd" d="M4.95942 13.2439L11.7933 4.40645C12.1647 3.92988 12.2967 3.3789 12.1729 2.81788C12.0656 2.30787 11.752 1.82293 11.2816 1.45505L10.1343 0.543716C9.13566 -0.250569 7.89765 -0.16696 7.18785 0.744378L6.42028 1.74016C6.32124 1.86474 6.346 2.04868 6.4698 2.14901C6.4698 2.14901 8.40936 3.70414 8.45063 3.73758C8.58268 3.86299 8.68173 4.03021 8.70649 4.23087C8.74775 4.62384 8.47539 4.99172 8.07097 5.04188C7.88114 5.06696 7.69957 5.00844 7.56751 4.89975L5.52891 3.27773C5.42987 3.20332 5.28131 3.2192 5.19877 3.31954L0.353997 9.59021C0.0403655 9.98317 -0.0669294 10.4932 0.0403655 10.9865L0.659374 13.6703C0.692388 13.8125 0.81619 13.9128 0.964752 13.9128L3.68839 13.8794C4.1836 13.871 4.64579 13.6452 4.95942 13.2439ZM8.77309 12.4081H13.2143C13.6476 12.4081 14 12.7651 14 13.204C14 13.6438 13.6476 14 13.2143 14H8.77309C8.33978 14 7.98736 13.6438 7.98736 13.204C7.98736 12.7651 8.33978 12.4081 8.77309 12.4081Z" fill="#D3D3D6"/>
</g>
</svg>
